# xmcd CD database file
#
# Track frame offsets:
#	150
#	19940
#	45910
#
# Disc length: 872 seconds
#
# Revision: 1
# Processed by: cddbd v1.5.1PL2 Copyright (c) Steve Scherf et al.
# Submitted via: CDex 1.60beta1-cs1
#
DISCID=18036603
DTITLE=真璃子 - あなたの海になりたい
DYEAR=1991
DGENRE=JPop
TTITLE0=あなたの海になりたい
TTITLE1=スターダスト
TTITLE2=あなたの海になりたい（オリジナル・カラオケ）
EXTD=YEAR: 1991
EXTT0=
EXTT1=
EXTT2=
PLAYORDER=
